Coordinates
version=1
nRows=5
nColumns=40
inDegrees=yes

Units are S.I. units (second, meters, Newtons, ...)
If the header above contains a line with 'inDegrees', this indicates whether rotational values are in degrees (yes) or radians (no).

endheader
time	pelvis_tilt	pelvis_list	pelvis_rotation	pelvis_tx	pelvis_ty	pelvis_tz	hip_flexion_r	hip_adduction_r	hip_rotation_r	knee_angle_r	knee_angle_r_beta	ankle_angle_r	subtalar_angle_r	mtp_angle_r	hip_flexion_l	hip_adduction_l	hip_rotation_l	knee_angle_l	knee_angle_l_beta	ankle_angle_l	subtalar_angle_l	mtp_angle_l	lumbar_extension	lumbar_bending	lumbar_rotation	arm_flex_r	arm_add_r	arm_rot_r	elbow_flex_r	pro_sup_r	wrist_flex_r	wrist_dev_r	arm_flex_l	arm_add_l	arm_rot_l	elbow_flex_l	pro_sup_l	wrist_flex_l	wrist_dev_l
      0.00000000	     -1.29694366	      7.85746676	    -81.15300797	      0.25973708	      0.84135203	     -0.19301121	     34.30852248	     -6.17917981	    -21.45092120	      4.63770115	      0.08094315	     -5.42878711	      0.00000000	      0.00000000	     -6.85611775	      0.71811988	     -2.55546802	      7.76827520	      0.13558198	      8.66937506	      0.00000000	      0.00000000	     -1.18504259	      3.81149717	    -15.24175711	    -12.00811124	     -4.26303295	     -0.79655815	     28.24067563	     89.02698948	    -23.76594173	      4.84106892	      9.01382356	    -13.50466603	      8.27589571	     62.73177564	     89.35316424	    -15.12040268	      2.25628096
      0.01000000	     -1.28746949	      7.79872415	    -80.97186375	      0.25923214	      0.84016312	     -0.18038117	     34.35213781	     -6.10288968	    -21.23147732	      5.01903501	      0.08759869	     -5.49749623	      0.00000000	      0.00000000	     -7.48033330	      0.41294644	     -2.42049719	      8.39972882	      0.14660292	      8.33151686	      0.00000000	      0.00000000	     -1.22391776	      3.91762095	    -15.43457136	    -11.95489073	     -4.20012142	     -0.92502943	     28.20993820	     89.01366618	    -23.75966680	      4.79705846	      8.88988137	    -13.38115332	      8.13265280	     62.57694893	     89.35451952	    -15.18580994	      2.26097791
      0.02000000	     -1.35401146	      7.50047268	    -80.71517809	      0.25866200	      0.83958680	     -0.16747066	     34.11399215	     -5.99840732	    -21.61591105	      5.79839415	      0.10120107	     -5.52489077	      0.00000000	      0.00000000	     -8.17904155	     -0.06928405	     -2.45068938	      9.38842476	      0.16385892	      7.93785314	      0.00000000	      0.00000000	     -1.54006529	      4.15485685	    -15.67923389	    -11.84618705	     -4.09372588	     -1.19832701	     28.22710437	     89.01579131	    -23.73100792	      4.68769966	      8.65465196	    -13.18350626	      7.82729889	     62.42016763	     89.35688060	    -15.34909243	      2.14742943
      0.03000000	     -1.71748593	      6.99837488	    -80.27852656	      0.25817954	      0.83949602	     -0.15400189	     33.51735619	     -5.66576801	    -21.86168369	      6.70989059	      0.11710968	     -5.76670073	      0.00000000	      0.00000000	     -9.12974391	     -0.94643143	     -2.24493331	     10.20028686	      0.17802859	      7.41624718	      0.00000000	      0.00000000	     -1.93696404	      4.72096571	    -15.94971677	    -11.84189207	     -4.06341422	     -1.49657144	     28.32648971	     89.02052545	    -23.58882727	      4.61850789	      8.46602991	    -12.93645156	      7.72079174	     62.01647391	     89.35741633	    -15.75584975	      1.75165499
      0.04000000	     -1.88694784	      6.85966700	    -80.10275762	      0.25738106	      0.83916537	     -0.14037903	     33.36151446	     -5.48370850	    -21.50657009	      7.91022705	      0.13805951	     -6.24438163	      0.00000000	      0.00000000	     -9.66626615	     -1.53851476	     -2.15988175	     11.11946134	      0.19407121	      6.51937242	      0.00000000	      0.00000000	     -1.93935271	      5.02772333	    -16.04258764	    -11.80984261	     -4.06862288	     -1.53393801	     28.36490076	     89.01359960	    -23.56846842	      4.62078651	      8.10045610	    -12.68387588	      7.58441199	     61.46015417	     89.35693078	    -15.84811167	      1.76694189
